<svg id="Layer_1" data-name="Layer 1" xmlns="http://www.w3.org/2000/svg" viewBox="0 0 28 28"><defs><style>.cls-1{fill:#8487e0;}</style></defs><path class="cls-1" d="M14,.34h-.23L14.5,8l.72,7.65-5.51-.83L4,14l5.73-.84,2.89-.42L13.05,8,13.77.35a13.54,13.54,0,1,0,.23,0Zm.35,23.56A1.87,1.87,0,1,1,16.22,22,1.87,1.87,0,0,1,14.35,23.9Zm5.76-2.18a1.56,1.56,0,1,1,1.56-1.56A1.55,1.55,0,0,1,20.11,21.72Zm2.8-4.89a1.25,1.25,0,1,1,1.25-1.25A1.25,1.25,0,0,1,22.91,16.83Z" transform="translate(0 -0.34)"/><polygon class="cls-1" points="13.77 0 13.77 0.01 13.78 0.01 13.77 0"/></svg>