<svg id="Layer_1" data-name="Layer 1" xmlns="http://www.w3.org/2000/svg" viewBox="0 0 196.89 177.97"><defs><style>.cls-1{fill:#b8809e;}.cls-2{fill:#87a4d6;}.cls-3{fill:#6863aa;}</style></defs><path class="cls-1" d="M69.35,75.77a4.54,4.54,0,0,0,3.92-2.32,37.8,37.8,0,0,1-5.5,2A4.56,4.56,0,0,0,69.35,75.77Z" transform="translate(-1.11)"/><path class="cls-1" d="M60.64.13a37.3,37.3,0,1,0,7.13,73.08A4.59,4.59,0,0,1,64.71,69l-.15-13.32a4.59,4.59,0,1,1,9.18-.1l.15,13.31a4.55,4.55,0,0,1-.62,2.32A37.3,37.3,0,0,0,60.64.13ZM35,38l-7.26-.67a2.52,2.52,0,0,1,.46-5l7.27.67A2.52,2.52,0,0,1,35,38Zm9.35-16.9a2.51,2.51,0,0,1-3.54-.29l-4.73-5.55A2.52,2.52,0,1,1,39.93,12l4.72,5.56A2.51,2.51,0,0,1,44.36,21.13Zm18.52-6.59a2.52,2.52,0,0,1-5-.46l.68-7.27a2.51,2.51,0,0,1,2.74-2.27h0a2.52,2.52,0,0,1,2.27,2.74Z" transform="translate(-1.11)"/><path class="cls-2" d="M92.07,69.21a53,53,0,1,0,53-53A53,53,0,0,0,92.07,69.21ZM130,85.15,140.8,69.42a2.93,2.93,0,0,1,1-1l0,0a2.91,2.91,0,0,1,.35-.2l2-.88A2.94,2.94,0,0,1,148,68.81l15.61,35a2.93,2.93,0,0,1-1.48,3.88l-2,.89a3,3,0,0,1-3.89-1.49L143.84,79.23l-7.19,10.48a2.94,2.94,0,0,1-4.09.76l-1.78-1.23A3,3,0,0,1,130,85.15Zm44.32-14.72h0a3.57,3.57,0,0,1,3.61-3.53L188.3,67a3.56,3.56,0,0,1,3.52,3.61h0a3.57,3.57,0,0,1-3.61,3.53L177.85,74A3.56,3.56,0,0,1,174.33,70.43Zm-29.39-29.5h0a3.56,3.56,0,0,1-3.53-3.61L141.52,27a3.57,3.57,0,0,1,3.61-3.53h0A3.57,3.57,0,0,1,148.66,27l-.11,10.36A3.58,3.58,0,0,1,144.94,40.93Zm21.45,7.67h0a3.58,3.58,0,0,1,0-5.05l7.33-7.32a3.56,3.56,0,0,1,5.05,0h0a3.57,3.57,0,0,1,0,5l-7.33,7.33A3.58,3.58,0,0,1,166.39,48.6Z" transform="translate(-1.11)"/><path class="cls-3" d="M69.22,41.75a68.11,68.11,0,1,0,68.11,68.11A68.11,68.11,0,0,0,69.22,41.75Zm18.33,93.87-2.29,1.57a3.79,3.79,0,0,1-5.26-1l-9.24-13.47-16,35.77a3.78,3.78,0,0,1-5,1.92l-2.55-1.14a3.78,3.78,0,0,1-1.91-5l20.08-44.95a3.78,3.78,0,0,1,5-1.91L73,108.57a3.14,3.14,0,0,1,.44.25l0,0a3.86,3.86,0,0,1,1.23,1.28l13.87,20.23A3.78,3.78,0,0,1,87.55,135.62ZM9.06,111.69h0a4.58,4.58,0,0,1,4.53-4.64l13.32-.17a4.59,4.59,0,0,1,4.64,4.54h0A4.59,4.59,0,0,1,27,116.07l-13.32.16A4.59,4.59,0,0,1,9.06,111.69Zm60-60.7h0a4.59,4.59,0,0,1,4.65,4.54l.15,13.31a4.6,4.6,0,0,1-4.54,4.65h0A4.6,4.6,0,0,1,64.71,69l-.15-13.32A4.58,4.58,0,0,1,69.09,51ZM25.84,67.44h0a4.61,4.61,0,0,1,6.5,0l9.41,9.42a4.58,4.58,0,0,1,0,6.49h0a4.59,4.59,0,0,1-6.49,0l-9.42-9.42A4.59,4.59,0,0,1,25.84,67.44Z" transform="translate(-1.11)"/></svg>